<?xml version="1.0" encoding="UTF-8"?>
<svg version="1.1" xmlns="http://www.w3.org/2000/svg" width="200" height="200">
<path d="M0 0 C19.8 0 39.6 0 60 0 C60 3.3 60 6.6 60 10 C76.5 10 93 10 110 10 C110 13.3 110 16.6 110 20 C113.3 20 116.6 20 120 20 C120 72.8 120 125.6 120 180 C116.7 180 113.4 180 110 180 C110 183.3 110 186.6 110 190 C57.2 190 4.4 190 -50 190 C-50 186.7 -50 183.4 -50 180 C-53.3 180 -56.6 180 -60 180 C-60 127.2 -60 74.4 -60 20 C-56.7 20 -53.4 20 -50 20 C-50 16.7 -50 13.4 -50 10 C-33.5 10 -17 10 0 10 C0 6.7 0 3.4 0 0 Z " fill="#FFFFFF" transform="translate(70,0)"/>
<path d="M0 0 C13.2 0 26.4 0 40 0 C40 3.3 40 6.6 40 10 C36.7 10 33.4 10 30 10 C30 13.3 30 16.6 30 20 C26.7 20 23.4 20 20 20 C20 56.3 20 92.6 20 130 C16.7 130 13.4 130 10 130 C10 136.6 10 143.2 10 150 C13.3 150 16.6 150 20 150 C20 153.3 20 156.6 20 160 C56.3 160 92.6 160 130 160 C130 156.7 130 153.4 130 150 C136.6 150 143.2 150 150 150 C150 143.4 150 136.8 150 130 C146.7 130 143.4 130 140 130 C140 120.1 140 110.2 140 100 C143.3 100 146.6 100 150 100 C150 103.3 150 106.6 150 110 C153.3 110 156.6 110 160 110 C160 100.1 160 90.2 160 80 C156.7 80 153.4 80 150 80 C150 76.7 150 73.4 150 70 C146.7 70 143.4 70 140 70 C140 53.5 140 37 140 20 C136.7 20 133.4 20 130 20 C130 16.7 130 13.4 130 10 C126.7 10 123.4 10 120 10 C120 6.7 120 3.4 120 0 C133.2 0 146.4 0 160 0 C160 3.3 160 6.6 160 10 C163.3 10 166.6 10 170 10 C170 62.8 170 115.6 170 170 C166.7 170 163.4 170 160 170 C160 173.3 160 176.6 160 180 C107.2 180 54.4 180 0 180 C0 176.7 0 173.4 0 170 C-3.3 170 -6.6 170 -10 170 C-10 117.2 -10 64.4 -10 10 C-6.7 10 -3.4 10 0 10 C0 6.7 0 3.4 0 0 Z " fill="#000000" transform="translate(20,10)"/>
<path d="M0 0 C3.3 0 6.6 0 10 0 C10 3.3 10 6.6 10 10 C13.3 10 16.6 10 20 10 C20 13.3 20 16.6 20 20 C23.3 20 26.6 20 30 20 C30 23.3 30 26.6 30 30 C33.3 30 36.6 30 40 30 C40 39.9 40 49.8 40 60 C36.7 60 33.4 60 30 60 C30 56.7 30 53.4 30 50 C23.4 50 16.8 50 10 50 C10 46.7 10 43.4 10 40 C3.4 40 -3.2 40 -10 40 C-10 36.7 -10 33.4 -10 30 C-16.6 30 -23.2 30 -30 30 C-30 26.7 -30 23.4 -30 20 C-23.4 20 -16.8 20 -10 20 C-10 16.7 -10 13.4 -10 10 C-6.7 10 -3.4 10 0 10 C0 6.7 0 3.4 0 0 Z " fill="#F9C326" transform="translate(140,60)"/>
<path d="M0 0 C36.3 0 72.6 0 110 0 C110 3.3 110 6.6 110 10 C73.7 10 37.4 10 0 10 C0 6.7 0 3.4 0 0 Z " fill="#529BE6" transform="translate(40,160)"/>
<path d="M0 0 C3.3 0 6.6 0 10 0 C10 36.3 10 72.6 10 110 C6.7 110 3.4 110 0 110 C0 73.7 0 37.4 0 0 Z " fill="#91D4FF" transform="translate(40,30)"/>
<path d="M0 0 C3.3 0 6.6 0 10 0 C10 33 10 66 10 100 C6.7 100 3.4 100 0 100 C0 67 0 34 0 0 Z " fill="#0C0916" transform="translate(30,40)"/>
<path d="M0 0 C6.6 0 13.2 0 20 0 C20 3.3 20 6.6 20 10 C23.3 10 26.6 10 30 10 C30 13.3 30 16.6 30 20 C26.7 20 23.4 20 20 20 C20 23.3 20 26.6 20 30 C13.4 30 6.8 30 0 30 C0 20.1 0 10.2 0 0 Z " fill="#91D4FF" transform="translate(90,40)"/>
<path d="M0 0 C19.8 0 39.6 0 60 0 C60 3.3 60 6.6 60 10 C40.2 10 20.4 10 0 10 C0 6.7 0 3.4 0 0 Z " fill="#91D4FF" transform="translate(70,0)"/>
<path d="M0 0 C16.5 0 33 0 50 0 C50 3.3 50 6.6 50 10 C33.5 10 17 10 0 10 C0 6.7 0 3.4 0 0 Z " fill="#91D4FF" transform="translate(100,100)"/>
<path d="M0 0 C3.3 0 6.6 0 10 0 C10 13.2 10 26.4 10 40 C6.7 40 3.4 40 0 40 C0 26.8 0 13.6 0 0 Z " fill="#0C0916" transform="translate(160,40)"/>
<path d="M0 0 C3.3 0 6.6 0 10 0 C10 13.2 10 26.4 10 40 C6.7 40 3.4 40 0 40 C0 26.8 0 13.6 0 0 Z " fill="#91D4FF" transform="translate(150,30)"/>
<path d="M0 0 C3.3 0 6.6 0 10 0 C10 9.9 10 19.8 10 30 C6.7 30 3.4 30 0 30 C0 20.1 0 10.2 0 0 Z " fill="#0C0916" transform="translate(160,110)"/>
<path d="M0 0 C3.3 0 6.6 0 10 0 C10 9.9 10 19.8 10 30 C6.7 30 3.4 30 0 30 C0 20.1 0 10.2 0 0 Z " fill="#529BE6" transform="translate(150,110)"/>
<path d="M0 0 C3.3 0 6.6 0 10 0 C10 3.3 10 6.6 10 10 C13.3 10 16.6 10 20 10 C20 13.3 20 16.6 20 20 C13.4 20 6.8 20 0 20 C0 13.4 0 6.8 0 0 Z " fill="#702319" transform="translate(90,50)"/>
<path d="M0 0 C3.3 0 6.6 0 10 0 C10 6.6 10 13.2 10 20 C6.7 20 3.4 20 0 20 C0 13.4 0 6.8 0 0 Z " fill="#529BE6" transform="translate(160,140)"/>
<path d="M0 0 C3.3 0 6.6 0 10 0 C10 6.6 10 13.2 10 20 C6.7 20 3.4 20 0 20 C0 13.4 0 6.8 0 0 Z " fill="#91D4FF" transform="translate(30,140)"/>
<path d="M0 0 C6.6 0 13.2 0 20 0 C20 3.3 20 6.6 20 10 C13.4 10 6.8 10 0 10 C0 6.7 0 3.4 0 0 Z " fill="#F18E3E" transform="translate(150,100)"/>
<path d="M0 0 C6.6 0 13.2 0 20 0 C20 3.3 20 6.6 20 10 C13.4 10 6.8 10 0 10 C0 6.7 0 3.4 0 0 Z " fill="#F18E3E" transform="translate(130,90)"/>
<path d="M0 0 C6.6 0 13.2 0 20 0 C20 3.3 20 6.6 20 10 C13.4 10 6.8 10 0 10 C0 6.7 0 3.4 0 0 Z " fill="#F18E3E" transform="translate(110,80)"/>
<path d="M0 0 C3.3 0 6.6 0 10 0 C10 6.6 10 13.2 10 20 C6.7 20 3.4 20 0 20 C0 13.4 0 6.8 0 0 Z " fill="#702319" transform="translate(140,60)"/>
<path d="M0 0 C3.3 0 6.6 0 10 0 C10 3.3 10 6.6 10 10 C6.7 10 3.4 10 0 10 C0 6.7 0 3.4 0 0 Z " fill="#F18E3E" transform="translate(170,110)"/>
<path d="M0 0 C3.3 0 6.6 0 10 0 C10 3.3 10 6.6 10 10 C6.7 10 3.4 10 0 10 C0 6.7 0 3.4 0 0 Z " fill="#529BE6" transform="translate(140,100)"/>
<path d="M0 0 C3.3 0 6.6 0 10 0 C10 3.3 10 6.6 10 10 C6.7 10 3.4 10 0 10 C0 6.7 0 3.4 0 0 Z " fill="#F18E3E" transform="translate(130,70)"/>
<path d="M0 0 C3.3 0 6.6 0 10 0 C10 3.3 10 6.6 10 10 C6.7 10 3.4 10 0 10 C0 6.7 0 3.4 0 0 Z " fill="#F18E3E" transform="translate(140,60)"/>
<path d="M0 0 C3.3 0 6.6 0 10 0 C10 3.3 10 6.6 10 10 C6.7 10 3.4 10 0 10 C0 6.7 0 3.4 0 0 Z " fill="#91D4FF" transform="translate(110,50)"/>
<path d="M0 0 C3.3 0 6.6 0 10 0 C10 3.3 10 6.6 10 10 C6.7 10 3.4 10 0 10 C0 6.7 0 3.4 0 0 Z " fill="#FFFFFF" transform="translate(100,50)"/>
<path d="M0 0 C3.3 0 6.6 0 10 0 C10 3.3 10 6.6 10 10 C6.7 10 3.4 10 0 10 C0 6.7 0 3.4 0 0 Z " fill="#91D4FF" transform="translate(80,50)"/>
<path d="M0 0 C3.3 0 6.6 0 10 0 C10 3.3 10 6.6 10 10 C6.7 10 3.4 10 0 10 C0 6.7 0 3.4 0 0 Z " fill="#91D4FF" transform="translate(140,20)"/>
<path d="M0 0 C3.3 0 6.6 0 10 0 C10 3.3 10 6.6 10 10 C6.7 10 3.4 10 0 10 C0 6.7 0 3.4 0 0 Z " fill="#91D4FF" transform="translate(50,20)"/>
<path d="M0 0 C3.3 0 6.6 0 10 0 C10 3.3 10 6.6 10 10 C6.7 10 3.4 10 0 10 C0 6.7 0 3.4 0 0 Z " fill="#91D4FF" transform="translate(130,10)"/>
<path d="M0 0 C3.3 0 6.6 0 10 0 C10 3.3 10 6.6 10 10 C6.7 10 3.4 10 0 10 C0 6.7 0 3.4 0 0 Z " fill="#91D4FF" transform="translate(60,10)"/>
</svg>
